<?xml version="1.0" encoding="UTF-8"?>
<svg width="24px" height="24px" viewBox="0 0 24 24" version="1.1" xmlns="http://www.w3.org/2000/svg" xmlns:xlink="http://www.w3.org/1999/xlink">
    <title>2F56EB45-50BF-4C4E-8C65-4BFE089B2B19</title>
    <g id="Symbols" stroke="none" stroke-width="1" fill="none" fill-rule="evenodd">
        <g id="DDS" transform="translate(-147.000000, -1661.000000)" fill="#75B229">
            <g id="Icon-/-Add-Copy" transform="translate(147.000000, 1661.000000)">
                <path d="M16.4562004,3 C16.9690362,3 17.3917076,3.38604019 17.4494727,3.88337887 L17.4562004,4 L17.4561461,5 L19.6081461,5 C20.120982,5 20.5436533,5.38604019 20.6014184,5.88337887 L20.6081461,6 L20.6081461,19.4061134 C20.6081461,19.9583981 20.1604309,20.4061134 19.6081461,20.4061134 L19.6081461,20.4061134 L4.60814612,20.4061134 C4.05586137,20.4061134 3.60814612,19.9583981 3.60814612,19.4061134 L3.60814612,19.4061134 L3.60814612,6 C3.60814612,5.44771525 4.05586137,5 4.60814612,5 L4.60814612,5 L6.49914612,5 L6.5,4 C6.5,3.44771525 6.94771525,3 7.5,3 C8.01283584,3 8.43550716,3.38604019 8.49327227,3.88337887 L8.5,4 L8.49914612,5 L9.45614612,5 L9.4562004,4 C9.4562004,3.44771525 9.90391565,3 10.4562004,3 C10.9690362,3 11.3917076,3.38604019 11.4494727,3.88337887 L11.4562004,4 L11.4561461,5 L12.4561461,5 L12.4562004,4 C12.4562004,3.44771525 12.9039157,3 13.4562004,3 C13.9690362,3 14.3917076,3.38604019 14.4494727,3.88337887 L14.4562004,4 L14.4561461,5 L15.4561461,5 L15.4562004,4 C15.4562004,3.44771525 15.9039157,3 16.4562004,3 Z M7.48214612,6.999 L5.608,7 L5.608,18.5396812 L18.608,18.5396812 L18.608,7 L16.4735096,6.99985321 C16.4677516,6.99995094 16.4619817,7 16.4562004,7 L16.4391461,6.999 L13.4735096,6.99985321 C13.4677516,6.99995094 13.4619817,7 13.4562004,7 L13.4391461,6.999 L10.4735096,6.99985321 C10.4677516,6.99995094 10.4619817,7 10.4562004,7 L10.4391461,6.999 L7.5171615,6.99985571 C7.51145252,6.99995178 7.50573189,7 7.5,7 L7.48214612,6.999 Z M9.80285484,11.7864146 L9.80285484,14.7864146 L6.80285484,14.7864146 L6.80285484,11.7864146 L9.80285484,11.7864146 Z M13.4562004,11.7864146 L13.4562004,14.7864146 L10.4562004,14.7864146 L10.4562004,11.7864146 L13.4562004,11.7864146 Z M9.80285484,8.17392962 L9.80285484,11.1739296 L6.80285484,11.1739296 L6.80285484,8.17392962 L9.80285484,8.17392962 Z M13.4562004,8.17392962 L13.4562004,11.1739296 L10.4562004,11.1739296 L10.4562004,8.17392962 L13.4562004,8.17392962 Z M17,8.17392962 L17,11.1739296 L14,11.1739296 L14,8.17392962 L17,8.17392962 Z" id="Rectangle"></path>
            </g>
        </g>
    </g>
</svg>