<?xml version="1.0" encoding="UTF-8"?>
<svg width="32px" height="32px" viewBox="0 0 32 32" version="1.1" xmlns="http://www.w3.org/2000/svg" xmlns:xlink="http://www.w3.org/1999/xlink">
    <title>CF4FFB7D-9703-49BE-9E10-D5C9BF151784</title>
    <g id="Symbols" stroke="none" stroke-width="1" fill="none" fill-rule="evenodd">
        <g id="DDS" transform="translate(-435.000000, -1709.000000)" fill="#FFF">
            <g id="Icon-/-Add-Copy-18" transform="translate(435.000000, 1709.000000)">
                <path d="M4.99410528,3.45887149 L11.9993882,10.4645569 L19.0058947,3.45887149 C19.3183142,3.14645206 19.8248461,3.14645206 20.1372656,3.45887149 L20.8332972,4.15490311 C21.1457166,4.46732254 21.1457166,4.97385452 20.8332972,5.28627396 L13.8263882,12.2915569 L20.8332972,19.2980634 C21.1457166,19.6104828 21.1457166,20.1170148 20.8332972,20.4294342 L20.1372656,21.1254659 C19.8248461,21.4378853 19.3183142,21.4378853 19.0058947,21.1254659 L11.9993882,14.1185569 L4.99410528,21.1254659 C4.68168585,21.4378853 4.17515387,21.4378853 3.86273443,21.1254659 L3.16670282,20.4294342 C2.85428338,20.1170148 2.85428338,19.6104828 3.16670282,19.2980634 L10.1723882,12.2915569 L3.16670282,5.28627396 C2.85428338,4.97385452 2.85428338,4.46732254 3.16670282,4.15490311 L3.86273443,3.45887149 C4.17515387,3.14645206 4.68168585,3.14645206 4.99410528,3.45887149 Z" id="Path-2"></path>
            </g>
        </g>
    </g>
</svg>