<?xml version="1.0" encoding="UTF-8"?>
<svg width="14px" height="14px" viewBox="0 0 14 14" version="1.1" xmlns="http://www.w3.org/2000/svg" xmlns:xlink="http://www.w3.org/1999/xlink">
    <title>2BFA49DF-A219-4EB5-AC4F-6810B71C8659</title>
    <defs>
        <path d="M7,0.583333333 C10.542,0.583333333 13.4166667,3.458 13.4166667,7 C13.4166667,10.542 10.542,13.4166667 7,13.4166667 C3.458,13.4166667 0.583333333,10.542 0.583333333,7 C0.583333333,3.458 3.458,0.583333333 7,0.583333333 Z M7,1.75 C4.10233221,1.75 1.75,4.10233221 1.75,7 C1.75,9.89766779 4.10233221,12.25 7,12.25 C9.89766779,12.25 12.25,9.89766779 12.25,7 C12.25,4.10233221 9.89766779,1.75 7,1.75 Z M5.09264032,4.22532455 L7,6.13268423 L8.90735968,4.22532455 C9.14686232,3.98582191 9.53517281,3.98582191 9.77467545,4.22532455 C10.0141781,4.46482719 10.0141781,4.85313768 9.77467545,5.09264032 L7.86731577,7 L9.77467545,8.90735968 C10.0141781,9.14686232 10.0141781,9.53517281 9.77467545,9.77467545 C9.53517281,10.0141781 9.14686232,10.0141781 8.90735968,9.77467545 L7,7.86731577 L5.09264032,9.77467545 C4.85313768,10.0141781 4.46482719,10.0141781 4.22532455,9.77467545 C3.98582191,9.53517281 3.98582191,9.14686232 4.22532455,8.90735968 L6.13268423,7 L4.22532455,5.09264032 C3.98582191,4.85313768 3.98582191,4.46482719 4.22532455,4.22532455 C4.46482719,3.98582191 4.85313768,3.98582191 5.09264032,4.22532455 Z" id="path-1"></path>
    </defs>
    <g id="Symbols" stroke="none" stroke-width="1" fill="none" fill-rule="evenodd">
        <g id="DDS" transform="translate(-296.000000, -1666.000000)">
            <g id="Icon-/-Add-Copy-4" transform="translate(296.000000, 1666.000000)">
                <mask id="mask-2" fill="white">
                    <use xlink:href="#path-1"></use>
                </mask>
                <use id="↳Color" fill="#029BFB" xlink:href="#path-1"></use>
            </g>
        </g>
    </g>
</svg>