<svg width="28" height="28" xmlns="http://www.w3.org/2000/svg"><path d="M12.99 12.679c1.494 0 2.705 1.244 2.705 2.778a2.79 2.79 0 01-1.371 2.417L16 22.679h-1.224l-1.554-4.455a2.667 2.667 0 01-.443.002l-1.555 4.453H10l1.673-4.796a2.79 2.79 0 01-1.386-2.426c0-1.534 1.21-2.778 2.704-2.778zm2.112-11.214a.548.548 0 01.774 0l.388.388c.728-.466 2.534.404 4.166 2.035 1.631 1.631 2.5 3.438 2.035 4.166l.415.415a.548.548 0 01-.774.774l-.39-.39-5.419 5.418-.013.013a3.5 3.5 0 10-5.448 3.89l.037-.035a1.1 1.1 0 01-1.556 0l-3.094 3.095a1.1 1.1 0 01-1.556 0L3.11 19.678a1.1 1.1 0 010-1.555l3.095-3.095a1.1 1.1 0 010-1.556l3.869-3.868a1.1 1.1 0 010-1.556l5.417-5.417-.39-.391a.548.548 0 010-.775z" fill="#75B229" fill-rule="evenodd"/></svg>