<?xml version="1.0" encoding="UTF-8"?>
<svg width="15px" height="15px" viewBox="0 0 15 15" version="1.1" xmlns="http://www.w3.org/2000/svg" xmlns:xlink="http://www.w3.org/1999/xlink">
    <title>9AFE4E68-91E5-4C4F-94FF-EAB2E2904A3A</title>
    <defs>
        <path d="M14.8752325,13.6618536 L10.9941153,9.75203956 C10.848402,9.60546975 10.8338306,9.3796151 10.9465442,9.20647415 C12.5378194,6.76578678 12.166679,3.40925237 9.81898019,1.40441734 C7.55999512,-0.524132818 4.12158926,-0.458133546 1.93288944,1.55098715 C-0.579379681,3.85710458 -0.642807833,7.782347 1.74346212,10.1703207 C3.77830582,12.2068696 6.92785644,12.4541526 9.24084116,10.9241695 C9.41441144,10.8093136 9.64198136,10.8243134 9.78855182,10.9717404 L13.6610977,14.8734116 C13.828668,15.0418384 14.1003805,15.0422669 14.2683794,14.8742688 L14.8743754,14.2678469 C15.0415171,14.1007059 15.0419457,13.8298517 14.8752325,13.6618536 L14.8752325,13.6618536 Z M2.95545411,8.95704833 C1.29946505,7.29978089 1.29946505,4.6032392 2.95545411,2.94597177 C4.61144317,1.28870433 7.30585394,1.28827576 8.961843,2.94597177 C10.6178321,4.6032392 10.6178321,7.29978089 8.961843,8.95704833 C7.30585394,10.6143158 4.61144317,10.6143158 2.95545411,8.95704833 L2.95545411,8.95704833 Z" id="path-1"></path>
    </defs>
    <g id="Symbols" stroke="none" stroke-width="1" fill="none" fill-rule="evenodd">
        <g id="DDS" transform="translate(-296.000000, -1714.000000)">
            <g id="Icon-/-Add-Copy-15" transform="translate(296.000000, 1714.000000)">
                <mask id="mask-2" fill="white">
                    <use xlink:href="#path-1"></use>
                </mask>
                <use id="↳Color" fill="#777777" xlink:href="#path-1"></use>
            </g>
        </g>
    </g>
</svg>