<?xml version="1.0" encoding="UTF-8"?>
<svg width="24px" height="24px" viewBox="0 0 24 24" version="1.1" xmlns="http://www.w3.org/2000/svg" xmlns:xlink="http://www.w3.org/1999/xlink">
    <title>F578D266-8800-4AD0-9228-DA23A95C8465</title>
    <g id="Symbols" stroke="none" stroke-width="1" fill="none" fill-rule="evenodd">
        <g id="DDS" transform="translate(-339.000000, -1709.000000)" fill="#FFFFFF">
            <g id="Icon-/-Add-Copy-16" transform="translate(339.000000, 1709.000000)">
                <path d="M15.007,6.001 L15,6.08100373 L15,8.50188745 C15,8.77802983 15.2238576,9.00188745 15.5,9.00188745 C15.7761424,9.00188745 16,8.77802983 16,8.50188745 L16,8.50188745 L16,6.08100373 C16,6.05342397 15.997767,6.02636575 15.993472,6 L22,6.00188745 L22,9.00188745 L22,9.00188745 C20.3431458,9.00188745 19,10.3450332 19,12.0018875 C19,13.6587417 20.3431458,15.0018875 22,15.0018875 L22,18.0018875 L15.994,18.001 L16,17.9383468 L16,15.5018875 C16,15.2257451 15.7761424,15.0018875 15.5,15.0018875 C15.2238576,15.0018875 15,15.2257451 15,15.5018875 L15,15.5018875 L15,17.9383468 C15,17.9598245 15.0013542,17.980986 15.0039819,18.0017504 L2,18.0018875 L2,15.0018875 L2,15.0018875 C3.65685425,15.0018875 5,13.6587417 5,12.0018875 C5,10.3450332 3.65685425,9.00188745 2,9.00188745 L2,6.00188745 L15.007,6.001 Z M15.5,10.0018875 C15.2238576,10.0018875 15,10.2257451 15,10.5018875 L15,10.5018875 L15,13.5018875 C15,13.7780298 15.2238576,14.0018875 15.5,14.0018875 C15.7761424,14.0018875 16,13.7780298 16,13.5018875 L16,13.5018875 L16,10.5018875 C16,10.2257451 15.7761424,10.0018875 15.5,10.0018875 Z" id="Rectangle-2" transform="translate(12.000000, 12.000944) rotate(-45.000000) translate(-12.000000, -12.000944) "></path>
            </g>
        </g>
    </g>
</svg>